<?xml version="1.0" encoding="UTF-8" standalone="no"?>
<svg
   xmlns:dc="http://purl.org/dc/elements/1.1/"
   xmlns:cc="http://creativecommons.org/ns#"
   xmlns:rdf="http://www.w3.org/1999/02/22-rdf-syntax-ns#"
   xmlns:svg="http://www.w3.org/2000/svg"
   xmlns="http://www.w3.org/2000/svg"
   xmlns:sodipodi="http://sodipodi.sourceforge.net/DTD/sodipodi-0.dtd"
   xmlns:inkscape="http://www.inkscape.org/namespaces/inkscape"
   id="Vrstva_12"
   data-name="Vrstva 12"
   viewBox="0 0 3840 2160"
   version="1.1"
   sodipodi:docname="bg-bottom.svg"
   inkscape:version="0.92.4 (5da689c313, 2019-01-14)">
  <metadata
     id="metadata893">
    <rdf:RDF>
      <cc:Work
         rdf:about="">
        <dc:format>image/svg+xml</dc:format>
        <dc:type
           rdf:resource="http://purl.org/dc/dcmitype/StillImage" />
        <dc:title>TMOU</dc:title>
      </cc:Work>
    </rdf:RDF>
  </metadata>
  <sodipodi:namedview
     pagecolor="#ffffff"
     bordercolor="#666666"
     borderopacity="1"
     objecttolerance="10"
     gridtolerance="10"
     guidetolerance="10"
     inkscape:pageopacity="0"
     inkscape:pageshadow="2"
     inkscape:window-width="1916"
     inkscape:window-height="1019"
     id="namedview891"
     showgrid="false"
     inkscape:zoom="0.12788689"
     inkscape:cx="-779.42197"
     inkscape:cy="2437.9935"
     inkscape:window-x="0"
     inkscape:window-y="18"
     inkscape:window-maximized="0"
     inkscape:current-layer="Vrstva_12" />
  <defs
     id="defs884">
    <style
       id="style882">.cls-1{fill:#01020c;}</style>
  </defs>
  <title
     id="title886">TMOU</title>
  <path
     class="cls-1"
     d="M3842,1238.79h-6.26c-21.33,2-36.92,9.4-54.07,20.36l-4.29-58.39-4.75,64.72c-.91.69-1.81,1.4-2.71,2.12l-.88-3.89-.49,2.19-2.29-31.2-2.83,38.48c-.66.61-1.33,1.23-2,1.85l-5.31-72.32-1.89,25.83-1-13.49-4.14,56.42-1.32-5.8-.5,2.18-2.29-31.2-2.12,28.94-4.76-64.83-2.66,36.25,0-.36-1,13.55L3732,1217l-4,54.56-1.14,5c-.55-.3-1.11-.59-1.67-.88l-9.12-124.35-5.53,75.36-2.81-12.41-.5,2.19-2.29-31.2-4.49,61.11-.45,2-4.63-63.1-1,13.55-2.44-33.2-7,95.89-8.09-110.18-5.53,75.36-2.81-12.41-8.61,38a31.09,31.09,0,0,0-41.78-22.17l-3.14-2.67-10.14,1.21-19.33,3-8.47-43.3-5.12-1.85-2.88-39.23-2.73,37.21-19.74-7.11-36-16-13.54,3.23-31.09,5.76s-25.34-17.1-28.1-19.05-9.37,8.23-9.37,8.23L3407,1178.25l-10.25,14.13-4.19,7.91a209.82,209.82,0,0,1-9.13,10.33,7.57,7.57,0,0,0-.48,1.15,5.25,5.25,0,0,0-4.27,4.91,7,7,0,0,0-6.52,8.42l-1.44,1-3.66,8.14a41.71,41.71,0,0,0-17,17.41,9.88,9.88,0,0,0-13.51,12.47c-.05.08-.1.15-.14.23a6.95,6.95,0,0,1-5.4,7q-.15.28-.27.57a7,7,0,0,0-10.94,8.67,7.18,7.18,0,0,0-1.74,2.14,7,7,0,0,0-.29,5.93l-1.43.66a6.45,6.45,0,0,0-.76-.47l-.29-.14a11.94,11.94,0,0,0-18.06,8.1,6.87,6.87,0,0,0-2.7-2.56,7,7,0,0,0-10.19,5.19l0-.55-.78,10.63q-3.86,3-7.56,6.1l-1.23-16.73-1,13.55-2.44-33.2-3.18,43.42q-3.69,3.49-7.18,7.19l-4.76-64.9-5.53,75.36-2.81-12.41-.5,2.19-2.29-31.2L3241,1355c-.41.61-.81,1.22-1.21,1.83l-4.25-57.89-1,13.55-2.44-33.2-5.23,71.2-2.34-10.37-1.54,6.79-6-81.91-5.54,75.36-2.81-12.41-3,13.39a14.08,14.08,0,0,0-11.33-.06,73.14,73.14,0,0,0-11.87-16.4,13.89,13.89,0,0,0,1.1-5.45,14,14,0,0,0-14-14.05c-.38,0-.76,0-1.13.06a14,14,0,0,0-24.91-1.8c-.43-.14-.87-.26-1.31-.36,0-.11,0-.23,0-.35a13246.89,13246.89,0,0,1-38-8.33,14,14,0,0,1-15.69-4.43,14,14,0,0,0-13.18,18.88,14,14,0,0,0-2.11.67l-1.27-17.34-1.38,18.8a14,14,0,0,0-6,11l-2.19-29.84-1,13.55-2.44-33.2L3054.7,1329q-3-1.26-6-2.45l-5-68.09-4.74,64.46c-1.18-.43-2.36-.85-3.55-1.26l-.06-.25-.05.22q-4.95-1.69-10-3.23l-3.08-42-3,40.26c-1.24-.35-2.49-.68-3.73-1l-2.88-39.25-1,13.56-2.43-33.2-4.13,56.24c-2-.45-3.94-.88-5.92-1.3l-5.08-69.23-4.93,67.25-2.53-.43-.88-3.87-.81,3.59a316.63,316.63,0,0,0-40.69-4,53.48,53.48,0,0,0-62.83-14.92l-3.63-16-4.67,20.61-.22.16-4.37-59.45-4.95,67.52c-.83.9-1.61,1.83-2.38,2.79l-4.21-57.41-4.78,65.19-4.79-65.19-1,13.55-2.44-33.19-5.22,71.19-2.35-10.37-1.54,6.79-6-81.91-5.53,75.37-2.82-12.41-7.34,32.41-3.88-17.16-6.62,29.21a26.56,26.56,0,0,1-30.55-1.56c-.38,0-.75,0-1.13.05a14,14,0,0,0-24.9-1.79,13.89,13.89,0,0,0-4.34-.69,14,14,0,0,0-14.05,14,12.44,12.44,0,0,0,.07,1.37h-.07a14,14,0,0,1-15.69-4.43,13.79,13.79,0,0,1-7.43,0,14,14,0,0,0-11.65,21.9,33.67,33.67,0,0,0-.55,25.54l-3.32,45.28q-8.08,10-15.36,20.62l-6.58-89.65-8.35,113.82q-5.79,10.36-10.79,21.21l-3.76-51.2-4,54.5a7,7,0,0,0-6.74.48c-.19-.23-.39-.45-.61-.67a6.94,6.94,0,0,1-6.27-6,7,7,0,0,0-9.88.23,3.9,3.9,0,0,0-.33.38l-7.5-53.13-5.51,39.12-3.88-27.51L2595,1476l-7.93-56.17-10,70.75a7.15,7.15,0,0,0-.53-.57,7,7,0,0,0-9.89.23l-.08.1a6.9,6.9,0,0,0-2.07-3.95,17.61,17.61,0,0,0-14.39,14.14,5.15,5.15,0,0,0-2.17.39,7,7,0,0,0-3.6-4.41l-3.32-45.16-3.32,45.36a7.24,7.24,0,0,0-1.56,1.22,6.91,6.91,0,0,0-1.52,2.48l-3.42-46.58-2.3,31.31-3.23-44-6,81.72a5.3,5.3,0,0,0-1.22,6.72,6,6,0,0,0,.66.91l0,.66a12.55,12.55,0,0,0-2,1,13.75,13.75,0,0,0-6.09,7.21l-4.41-60-2.51,34.33-3.09-42-4.41,60a252.65,252.65,0,0,0-40-21.44l-4.57-50.51-4,44.26-1.34-6.53-1.29,6.29-5.9-28.77-5.52,26.92c-1.18-.37-2.37-.72-3.55-1.08l-4.15-20.23-3.69,18c-1.38-.37-2.77-.71-4.16-1.06l-11.44-55.82-6.91,33.73-1.87-9.12-3.35-45.65-4.86,66.2-4.71-64.18-5,68.51-1.34-.12-8.5-41.47-8.32,40.63c-1.47,0-2.94,0-4.41,0-5.36,0-10.67.18-15.94.51l-6.63-47-6.73,47.68-8.66-61.44-9.12,64.67-2.76.53-9.37-34.66L2287.7,1500a252.42,252.42,0,0,0-34,12.46l-6.34-79.76-6.85,86.17a257.26,257.26,0,0,0-23.45,13.9l-3.51-44.12-3.92,49.28c-.77.56-1.55,1.12-2.31,1.69l-5.31-66.69-6,75.52q-3,2.53-6,5.16l-11.61-61-7.38,38.77-14.14-74.26L2142.21,1534l-23-85.17-1.93,7.13-15.43-57.05L2081,1475.8l-7.2-26.62-12.26,45.35a71.7,71.7,0,0,1-27.71-15,16.35,16.35,0,0,0-12.09,10.32,16.36,16.36,0,0,0-25.15,9.77c-2.67-.11-5.35-.18-8-.18-.61,0-1.21,0-1.82,0a16.38,16.38,0,0,0-31.47-9c-.43.06-.86.11-1.29.2a16.36,16.36,0,0,1-19.49-3.11,16.32,16.32,0,0,0-11,8,30.37,30.37,0,0,1-22.49,6,10.36,10.36,0,0,0-7.37,5.81l-5.38-26.26-3.35-45.65-4.86,66.19-4.71-64.17-5.37,73.22-9.49-46.3-10.94,53.35-.89-.12-3.22-22.81-2.27,16.1-3.56-25.25-4.39,31.15-1.8,0-8.24-58.41-6.72,47.68-8.67-61.44-10.11,71.71-11.14-41.18-18.7,69.17a96.05,96.05,0,0,0-8.52,9.83,9.77,9.77,0,0,0-1-1.37l-5.84-73.52L1748.8,1550a10.17,10.17,0,0,0-3.66,2.42,7.82,7.82,0,0,1-14,1.69,10.36,10.36,0,0,0-12.44-7.12l-3-20.33-3.81,25.78,0,.07c-.23-.21-.45-.43-.68-.63l-8.44-41.21-5.4,26.34-5.53-27-7.13,34.75a30.75,30.75,0,0,0-11.71,5q-3.24-.59-6.51-1.07a7.25,7.25,0,0,0-14.2-2.52,11.42,11.42,0,0,0-1.08-1.24,10.33,10.33,0,0,0-8-2.91v-10.31h14.41l-17.42-62.23-17.42,62.23h15.61v11.88a10.2,10.2,0,0,0-1.9,1.53,10.06,10.06,0,0,0-1.14,1.41l-2,0a10.11,10.11,0,0,0-2.29-3.31,10.37,10.37,0,0,0-12.76-1.36,31.79,31.79,0,0,0-2.65-2.95c-.58-.56-1.18-1.09-1.8-1.61l-8.33-40.66-6.93,33.8a31.09,31.09,0,0,0-23.25,5.82l-6.67-32.53-3.35-45.65-4.86,66.2-4.71-64.18-5.37,73.22-9.49-46.3-5.35,26.08a10.74,10.74,0,0,0-16.79-.73,10.73,10.73,0,0,0-5.69-8.49,10.84,10.84,0,0,0-4.44-1.23l-3-21.58-2.58,18.27q-1.77-1.87-3.59-3.69a10.79,10.79,0,0,0-5.27-12.67,10.92,10.92,0,0,0-1.85-.76l-2.1-14.91-2,14.47a11.14,11.14,0,0,0-3.17.77q-5.52-4.53-11.35-8.69a31.1,31.1,0,0,0-40.91-29.91,31,31,0,0,0-19.76-6.35,27.15,27.15,0,0,0-24.39-6.35,11.33,11.33,0,0,0-1.42-1.7,10.78,10.78,0,0,0-15.24.2c-.28.29-.54.6-.79.91a10.79,10.79,0,0,0-10.46,2.4,6.93,6.93,0,0,0-2.78-2.69,7,7,0,0,0-8.53,1.58,8.18,8.18,0,0,0-.76-.48,7,7,0,0,0-4.54-.69,33.05,33.05,0,0,1-18.5,4.35,7,7,0,0,0-9.44,2.92,7.13,7.13,0,0,0-.38.85l-.46-.28a6.83,6.83,0,0,1-3.93-3,7,7,0,0,0-9.54,9.25q-3.37,1-6.69,2.07a6.92,6.92,0,0,0-.9-.58,7,7,0,0,0-9.45,2.92l0,.11a7,7,0,1,0-12.3,6.58q-7.77,3.66-15.17,8l-2-19.58-2.26,22.13q-8.45,5.19-16.31,11.16l-1.91-18.6-2.24,21.84c-.92.73-1.84,1.47-2.74,2.23l-1.79-17.46-1.82,17.72-3.18-31.08-3.9,38-2.1-20.48-2.84,27.69c-1.61,1.66-3.2,3.33-4.76,5l-3.3-32.2-4.19,40.95c-1,1.22-2,2.44-2.91,3.68l-8.78-85.73L1178,1548.66c-.34.7-.69,1.39-1,2.09l-16-99.81-17.77,110.59-.24-.08-5.18-50.51-2.67,26.1-10.92-53.18L1112.41,1541a40.62,40.62,0,0,0-16.12-13l-6.2-38.58-4.13,25.75-9.81-61-11.78,73.32a40.71,40.71,0,0,0-20.27,18.09l0,0-6.58-61.56-3,27.77-5.68-53.2-7.77,72.7L1010,1458.05l-10.43,68.74a10.88,10.88,0,0,0-3-2.59,10.67,10.67,0,0,0-6.74-11.42,5.84,5.84,0,0,0-7.47-8.73l-7.09-28-9.45-1.3-2-12.54s-1.71-12.74-3.08-12.8-4.82,1.51-4.82,1.51l-3.31,5.08-11.12,1.81a10.88,10.88,0,0,0-1.89-.68l0-.09a10.76,10.76,0,0,0-5.74-19.49,6.89,6.89,0,0,0,0-3.87,7,7,0,0,0-7.08-5,5.78,5.78,0,0,0-.19-.88,7,7,0,0,0-2.67-3.73,6.89,6.89,0,0,0,.22-4.58,7,7,0,0,0-12.5-1.93,27,27,0,0,0-12.43-8.43,6.49,6.49,0,0,0-.87.33,5,5,0,0,0-.12-.53,7.06,7.06,0,0,0-.52-1.27,6.8,6.8,0,0,0-.08-3.63,7,7,0,0,0-13.31-.31,7,7,0,0,0-5.74.09l-.73-.22a7,7,0,0,0-8.55-9.07l-.11,0a7,7,0,1,0-13.48-3.29,7.25,7.25,0,0,0-1.57.26,7,7,0,0,0-4.3,3.65,5.29,5.29,0,0,0-2.08-.74,6.84,6.84,0,0,0-.05-3.75,7,7,0,0,0-13.69,2.24,7,7,0,0,0-9.77,8.3,5.3,5.3,0,0,0-.73.6,9.22,9.22,0,0,0-15.6,2.71,5.37,5.37,0,0,0,.32,1.75,13.82,13.82,0,0,0-10.45,2l-4.53-42.38-3.88,36.33c-.35-.7-.71-1.41-1.08-2.1l-4.43-41.44-3.26,30.53c-.63-.7-1.27-1.38-1.92-2l-5-46.9-4.19,39.23a58.55,58.55,0,0,0-88.55,31.28,41.2,41.2,0,0,0-20.83-8l-6.27-30.59-6.43,31.36a41.08,41.08,0,0,0-13.31,5.47l-6.68-32.6-8.6,42-4.7-64-4.29,58.4-.91-.45-7.21-35.18-4.19,20.44L592,1371l-3.71,18.12a31.68,31.68,0,0,0-2-3.32l-25-92.47L549,1338.64a16.36,16.36,0,0,0-8.63-3.05,16.36,16.36,0,0,0-30.36-3.52c-.83-.62-1.66-1.22-2.51-1.81a16.36,16.36,0,0,0-28.29-14c-1.36-.44-2.73-.85-4.12-1.24l-.12,0-9.13-7.57-5.77-4.51s-5.81.57-9.74.48-2-5-2-5l-3.8-12.24-12.9,3a90.59,90.59,0,0,1-7.17-7.91c-1.78-2.57-11.56-12.31-11.56-12.31l-3.06.94a16.25,16.25,0,0,0-10.23-1.27c-.39.07-.76.18-1.14.28a63,63,0,0,0-20.14-3.3l-.69,0a10.38,10.38,0,0,0-11.63,1.19,63.08,63.08,0,0,0-17.28,6.16l-4.15-20.24L341.31,1207l-4.86,66.2L331.74,1209l-5.32,72.56h-.19l-9.35-45.64-8.59,41.91-4.5-1.21-.48.15-1.47-10.42-1.61,11.4-1.27.4L296,1257.17l-3.23,22.91-4.32,1.36-8.74-2.22L276.87,1259l-2.66,18.82-1.68-.43-4.55-8.56L257.85,1271l-7-75-7.24,78-.61.13-7.82-43.94-8.42,47.35c-5.11,1.06-8.69,1.78-9,1.79l-.43,1.8c-1.45-1.5-2.95-3-4.48-4.41l-2.05-25.88L209,1273.24l-1.94-1.64-6.7-72.24-5.84,63q-2.46-1.61-5-3.1L182,1177.8l-6.87,74.07q-4.32-1.87-8.8-3.45l-7.16-77.26-6.79,73.21q-5.59-1.29-11.36-2.09l-6.44-69.43-6.34,68.27c-1.87-.08-3.75-.13-5.64-.13-3.59,0-7.14.15-10.65.43l-10-3-5.37-58-5.2,56.06-6.06-.28-5.17-55.78-5.47,58.89-8.87,7.37-6-64.1-5.29,57-8.4-7-20.36,10.6A131.51,131.51,0,0,0,0,1238.79H-6.26V2350.24H3842Z"
     id="path888" />
</svg>
